<?xml version="1.0" encoding="UTF-8" standalone="no"?>
<!DOCTYPE svg PUBLIC "-//W3C//DTD SVG 1.1//EN" "http://www.w3.org/Graphics/SVG/1.1/DTD/svg11.dtd">
<svg width="100%" height="100%" viewBox="0 0 1024 1024" version="1.1" xmlns="http://www.w3.org/2000/svg" xmlns:xlink="http://www.w3.org/1999/xlink" xml:space="preserve" xmlns:serif="http://www.serif.com/" style="fill-rule:evenodd;clip-rule:evenodd;stroke-linejoin:round;stroke-miterlimit:2;">
    <g transform="matrix(1.24272,0,0,1.24272,-166.058,-1145.76)">
        <g transform="matrix(1,0,0,1,-8.45924,53.4253)">
            <g transform="matrix(576,0,0,576,577.201,1307.46)">
                <path d="M0.079,-0.2L0.232,-0.354L0.079,-0.507L0.139,-0.566L0.292,-0.413L0.445,-0.566L0.503,-0.507L0.351,-0.354L0.504,-0.201L0.445,-0.141L0.292,-0.294L0.138,-0.141L0.079,-0.2Z" style="fill:white;fill-rule:nonzero;"/>
            </g>
        </g>
        <g transform="matrix(1,0,0,1,-41.3303,129.792)">
            <g transform="matrix(576,0,0,576,255.33,1174.94)">
                <path d="M0.452,-0.391C0.452,-0.357 0.441,-0.327 0.42,-0.302C0.398,-0.278 0.367,-0.258 0.325,-0.243C0.295,-0.232 0.264,-0.223 0.233,-0.216C0.202,-0.209 0.168,-0.204 0.131,-0.199C0.131,-0.148 0.14,-0.108 0.159,-0.081C0.178,-0.054 0.206,-0.041 0.243,-0.041C0.276,-0.041 0.304,-0.049 0.329,-0.065C0.354,-0.081 0.379,-0.105 0.403,-0.138L0.431,-0.117C0.405,-0.077 0.372,-0.046 0.333,-0.022C0.294,0.002 0.253,0.014 0.211,0.014C0.154,0.014 0.11,-0.002 0.079,-0.035C0.049,-0.067 0.034,-0.113 0.034,-0.172C0.034,-0.213 0.04,-0.252 0.053,-0.289C0.066,-0.327 0.085,-0.361 0.109,-0.392C0.133,-0.422 0.163,-0.446 0.198,-0.465C0.233,-0.483 0.272,-0.493 0.314,-0.493C0.361,-0.493 0.396,-0.483 0.418,-0.464C0.441,-0.445 0.452,-0.421 0.452,-0.391ZM0.362,-0.403C0.362,-0.416 0.361,-0.426 0.357,-0.433C0.353,-0.441 0.349,-0.446 0.343,-0.45C0.337,-0.454 0.331,-0.456 0.325,-0.457C0.318,-0.458 0.312,-0.458 0.305,-0.458C0.266,-0.458 0.23,-0.437 0.197,-0.394C0.163,-0.351 0.143,-0.298 0.134,-0.233C0.157,-0.237 0.182,-0.241 0.211,-0.247C0.24,-0.253 0.263,-0.261 0.282,-0.271C0.309,-0.285 0.329,-0.303 0.343,-0.325C0.356,-0.347 0.362,-0.373 0.362,-0.403Z" style="fill:white;fill-rule:nonzero;"/>
            </g>
        </g>
        <g transform="matrix(1,0,0,1,-146.983,200.878)">
            <g transform="matrix(576,0,0,576,344.045,1527.81)">
                <path d="M0.224,-0.45L0.224,-0.55L0.324,-0.55L0.324,-0.45L0.224,-0.45ZM0.511,-0.312L0.038,-0.312L0.038,-0.394L0.511,-0.394L0.511,-0.312ZM0.224,-0.156L0.224,-0.256L0.324,-0.256L0.324,-0.156L0.224,-0.156Z" style="fill:white;fill-rule:nonzero;"/>
            </g>
        </g>
    </g>
</svg>
